Coordinates
version=1
nRows=6
nColumns=63
inDegrees=yes

Units are S.I. units (second, meters, Newtons, ...)
If the header above contains a line with 'inDegrees', this indicates whether rotational values are in degrees (yes) or radians (no).

endheader
time	pelvis_tilt	pelvis_list	pelvis_rotation	pelvis_tx	pelvis_ty	pelvis_tz	hip_flexion_r	hip_adduction_r	hip_rotation_r	knee_angle_r	knee_angle_r_beta	ankle_angle_r	subtalar_angle_r	mtp_angle_r	hip_flexion_l	hip_adduction_l	hip_rotation_l	knee_angle_l	knee_angle_l_beta	ankle_angle_l	subtalar_angle_l	mtp_angle_l	L5_S1_Flex_Ext	L5_S1_Lat_Bending	L5_S1_axial_rotation	L4_L5_Flex_Ext	L4_L5_Lat_Bending	L4_L5_axial_rotation	L3_L4_Flex_Ext	L3_L4_Lat_Bending	L3_L4_axial_rotation	L2_L3_Flex_Ext	L2_L3_Lat_Bending	L2_L3_axial_rotation	L1_L2_Flex_Ext	L1_L2_Lat_Bending	L1_L2_axial_rotation	L1_T12_Flex_Ext	L1_T12_Lat_Bending	L1_T12_axial_rotation	Abs_r3	Abs_r2	Abs_r1	Abs_t1	Abs_t2	neck_flexion	neck_bending	neck_rotation	arm_flex_r	arm_add_r	arm_rot_r	elbow_flex_r	pro_sup_r	wrist_flex_r	wrist_dev_r	arm_flex_l	arm_add_l	arm_rot_l	elbow_flex_l	pro_sup_l	wrist_flex_l	wrist_dev_l
      0.00800000	    -44.24096955	     -1.10203441	     -2.11771455	     -0.38037854	      1.12188561	      0.01731746	     82.41317636	     -3.46936843	     -5.04172462	     64.79783856	      1.13093563	     -2.83930248	     -8.34083739	      0.00000000	    112.92452334	     -0.76815137	     10.65621506	     86.96575791	      1.51783881	     19.59464113	     -7.71423094	      0.00000000	     -0.08237940	      0.11725764	      0.37315665	     -0.15298678	      0.15595266	      0.39647894	     -0.13534111	      0.28510022	      0.39647894	     -0.09415141	      0.28510022	      0.32651206	     -0.07649751	      0.23911178	      0.30318977	     -0.04707159	      0.18163208	      0.27986748	     -0.58842779	      1.32644186	      2.07538531	      0.00000000	      0.00000000	     -0.00000000	      0.00000000	      0.00000001	     58.61903768	    -12.39565886	     17.28730837	     45.55327020	     60.13743883	      0.00000000	      4.78837521	     64.01052043	     -9.19589758	     27.43844558	     38.82404294	     61.97748367	      0.00000000	      4.78837521
      0.01700000	    -44.40864252	     -2.27044794	     -2.50919453	     -0.38276970	      1.12170004	      0.01652586	     84.53038349	     -3.52917302	     -6.42805995	     70.53549046	      1.23107655	     -1.73582611	     -8.16724683	      0.00000000	    110.40703515	     -1.01686269	     11.99119917	     80.91266612	      1.41219243	     18.17731215	     -7.99568682	      0.00000000	     -0.08352698	      0.30025824	      0.45365022	     -0.15511795	      0.39934346	      0.48200336	     -0.13722647	      0.73004788	      0.48200336	     -0.09546298	      0.73004788	      0.39694394	     -0.07756315	      0.61228660	      0.36859080	     -0.04772731	      0.46510001	      0.34023766	     -0.59662484	      3.39658125	      2.52306641	      0.00000000	      0.00000000	     -0.00000000	      0.00000000	      0.00000001	     59.30032639	    -13.13124622	     18.12573949	     45.64601517	     60.22866971	      0.00000000	      4.79315785	     64.08052474	     -8.77597375	     27.01355804	     38.34765517	     61.91955826	      0.00000000	      4.79315785
      0.02500000	    -44.42577059	     -2.60684139	     -2.95777513	     -0.38302096	      1.12171729	      0.01705488	     85.24215948	     -3.20124536	     -6.70370871	     72.19788785	      1.26009086	     -1.46543925	     -8.15864256	      0.00000000	    109.53595520	     -1.63760762	     12.24947785	     79.18242427	      1.38199401	     17.42215545	     -7.81865090	      0.00000000	     -0.08413940	      0.35102501	      0.53192959	     -0.15625528	      0.46686326	      0.56517519	     -0.13823262	      0.85348220	      0.56517519	     -0.09616292	      0.85348220	      0.46543839	     -0.07813185	      0.71581020	      0.43219279	     -0.04807725	      0.54373774	      0.39894719	     -0.60099934	      3.97086509	      2.95843280	      0.00000000	      0.00000000	     -0.00000000	      0.00000000	      0.00000001	     59.39939854	    -13.17653345	     18.21571900	     45.60888391	     60.23764118	      0.00000000	      4.79378474	     64.01506209	     -8.76336585	     26.93462728	     38.37521185	     61.90791138	      0.00000000	      4.79378474
      0.03300000	    -44.42241320	     -2.86094787	     -2.80421820	     -0.38323858	      1.12180119	      0.01653219	     86.19439819	     -3.63432766	     -6.89374114	     74.34551327	      1.29757399	     -1.54829678	     -7.47500743	      0.00000000	    108.36604851	     -1.67447606	     12.26484698	     76.97605145	      1.34348554	     16.15355200	     -7.94665627	      0.00000000	     -0.08249282	      0.39269331	      0.51224477	     -0.15319742	      0.52228211	      0.54426007	     -0.13552745	      0.95479452	      0.54426007	     -0.09428104	      0.95479452	      0.44821417	     -0.07660283	      0.80078021	      0.41619887	     -0.04713640	      0.60828194	      0.38418358	     -0.58923797	      4.44222531	      2.84895173	      0.00000000	      0.00000000	     -0.00000000	      0.00000000	      0.00000001	     59.56889355	    -13.39441474	     18.81353916	     45.46468302	     60.30304095	      0.00000000	      4.79682785	     63.97374920	     -8.53027598	     26.46926061	     38.08950314	     61.84385465	      0.00000000	      4.79682785
      0.04200000	    -44.43875381	     -3.26160738	     -3.17602065	     -0.38340658	      1.12187905	      0.01681717	     87.20660668	     -3.45472608	     -7.16041199	     76.54602538	      1.33598017	     -1.22106596	     -7.32447456	      0.00000000	    107.11867007	     -2.29950394	     12.40804718	     74.68970938	      1.30358135	     15.02814246	     -7.83545664	      0.00000000	     -0.08240022	      0.45379294	      0.58528086	     -0.15302546	      0.60354461	      0.62186091	     -0.13537533	      1.10335216	      0.62186091	     -0.09417522	      1.10335216	      0.51212075	     -0.07651685	      0.92537457	      0.47554070	     -0.04708349	      0.70292527	      0.43896064	     -0.58857657	      5.13339651	      3.25515655	      0.00000000	      0.00000000	     -0.00000000	      0.00000000	      0.00000001	     59.69700966	    -13.51651612	     19.01190737	     45.37629134	     60.32490062	      0.00000000	      4.79813786	     63.90701202	     -8.39972689	     26.28901799	     38.04502339	     61.81810871	      0.00000000	      4.79813786
      0.05000000	    -44.39148781	     -3.45901565	     -2.89363141	     -0.38347891	      1.12182810	      0.01621410	     88.41664017	     -4.07418944	     -7.18488105	     79.22405780	      1.38272066	     -0.80727750	     -6.48279579	      0.00000000	    105.60634159	     -2.35699682	     12.06955331	     72.08637862	      1.25814465	     13.10933295	     -8.51495257	      0.00000000	     -0.08255164	      0.48880738	      0.51730243	     -0.15330666	      0.65011381	      0.54963383	     -0.13562410	      1.18848626	      0.54963383	     -0.09434827	      1.18848626	      0.45263963	     -0.07665746	      0.99677601	      0.42030823	     -0.04717001	      0.75716263	      0.38797682	     -0.58965814	      5.52948683	      2.87708094	      0.00000000	      0.00000000	     -0.00000000	      0.00000000	      0.00000001	     59.89305318	    -13.58743484	     19.83779446	     45.29243200	     60.41232073	      0.00000000	      4.80358394	     63.87416043	     -8.25298114	     25.61220785	     37.65559178	     61.72599330	      0.00000000	      4.80358394
